<svg id="Layer_1" data-name="Layer 1" xmlns="http://www.w3.org/2000/svg" viewBox="0 0 17.7 17.7"><g id="Ellipse_51" data-name="Ellipse 51"><circle cx="8.85" cy="8.85" r="8.85" style="fill:#fff"/><circle cx="8.85" cy="8.85" r="8.37" style="fill:none;stroke:#c7e8f6;stroke-width:0.9567569062181853px"/></g><g id="_" data-name=" " style="isolation:isolate"><g style="isolation:isolate"><path d="M5.15,9.4c0-.11,0-.27,0-.46a1.19,1.19,0,0,1,.12-.42h7.63a3.38,3.38,0,0,1,0,.47,1,1,0,0,1-.15.39H7.88l-1.39,0Zm3.43,3.94c0-.44,0-.94,0-1.48s0-1.08,0-1.62,0-1,0-1.48V6.42c0-.42,0-.93,0-1.51A1,1,0,0,1,9,4.76a3.13,3.13,0,0,1,.46,0v8.44a.93.93,0,0,1-.4.13A2.85,2.85,0,0,1,8.58,13.34Z" transform="translate(0 0)" style="fill:#686f7d"/></g></g></svg>