<?xml version="1.0" encoding="utf-8"?>
<!-- Generator: Adobe Illustrator 25.2.1, SVG Export Plug-In . SVG Version: 6.00 Build 0)  -->
<svg version="1.0" id="Layer_1" xmlns="http://www.w3.org/2000/svg" xmlns:xlink="http://www.w3.org/1999/xlink" x="0px" y="0px"
	 viewBox="0 0 19.4 17.3" style="enable-background:new 0 0 19.4 17.3;" xml:space="preserve">
<style type="text/css">
	.st0{fill:none;stroke:#000000;stroke-width:0.9022;stroke-miterlimit:10;}
	.st1{fill:none;stroke:#000000;stroke-width:1.1104;stroke-miterlimit:10;}
	.st2{stroke:#000000;stroke-width:7.647555e-02;stroke-miterlimit:10;}
</style>
<g>
	<ellipse class="st0" cx="8.4" cy="14.7" rx="1.6" ry="1.6"/>
	<ellipse class="st0" cx="14.7" cy="14.7" rx="1.6" ry="1.6"/>
	<path class="st1" d="M6.8,11.6c-0.1,0-0.2-0.1-0.2-0.1L4.8,3.5c0-0.1,0-0.1,0-0.2c0,0,0.1-0.1,0.1-0.1h13.4c0.1,0,0.1,0,0.1,0.1
		c0,0,0,0.1,0,0.2l-2.1,7.9c0,0.1-0.1,0.1-0.2,0.1H6.8z"/>
	<path class="st2" d="M7.1,14.1c-0.2,0-0.5-0.2-0.5-0.4L3.8,1.5L1,1.4c-0.3,0-0.6-0.3-0.5-0.6c0-0.3,0.3-0.5,0.6-0.5l3.3,0.2
		c0.2,0,0.5,0.2,0.5,0.4l2.9,12.5C7.8,13.7,7.6,14,7.3,14C7.2,14.1,7.2,14.1,7.1,14.1z"/>
</g>
</svg>
