<?xml version="1.0" encoding="utf-8"?>
<!-- Generator: Adobe Illustrator 25.2.1, SVG Export Plug-In . SVG Version: 6.00 Build 0)  -->
<svg version="1.0" id="Logo_x5F_fip" xmlns="http://www.w3.org/2000/svg" xmlns:xlink="http://www.w3.org/1999/xlink" x="0px"
	 y="0px" viewBox="0 0 250 100" style="enable-background:new 0 0 250 100;" xml:space="preserve">
<style type="text/css">
	.st0{fill:none;}
	.st1{fill:#FFFFFF;}
	.st2{display:none;fill:#FFFFFF;}
	.st3{fill:none;stroke:#D2A10C;stroke-width:1.3089;stroke-miterlimit:10;}
	.st4{fill:none;stroke:#233775;stroke-width:2.2674;stroke-miterlimit:10;}
	.st5{fill:#233775;stroke:#233775;stroke-width:0.5086;stroke-miterlimit:10;}
	.st6{fill:url(#SVGID_1_);}
	.st7{fill:#D2A10C;}
	.st8{fill:#FFFFFF;stroke:#D2A10C;stroke-width:1.3089;stroke-miterlimit:10;}
	.st9{fill:#717070;stroke:#233775;stroke-width:0.2766;stroke-miterlimit:10;}
	.st10{fill:#233775;}
	.st11{fill:none;stroke:#233775;stroke-width:0.4486;stroke-miterlimit:10;}
	.st12{fill:none;stroke:#D2A10C;stroke-width:0.5;stroke-miterlimit:10;}
	.st13{fill:#FFFFFF;stroke:#233775;stroke-width:1.3;stroke-miterlimit:10;}
	.st14{fill:#FFFFFF;stroke:#233775;stroke-width:2.3;stroke-miterlimit:10;}
</style>
<pattern  y="100" width="25" height="14" patternUnits="userSpaceOnUse" id="rectangles" viewBox="0 -14 25 14" style="overflow:visible;">
	<g>
		<rect y="-14" class="st0" width="25" height="14"/>
		<g>
			<rect y="-14" class="st0" width="25" height="14"/>
			<g>
				<path class="st1" d="M9.8-2.2L9-2.1c-0.2,0-0.4,0.3-0.4,0.5l0.1,0.9c0,0.2,0.3,0.4,0.5,0.4L10-0.4c0.2,0,0.4-0.3,0.4-0.5
					l-0.1-0.9C10.2-2.1,10-2.2,9.8-2.2z"/>
				<path class="st1" d="M11.9-2.2l-0.8,0.1c-0.2,0-0.4,0.3-0.4,0.5l0.1,0.9c0,0.2,0.3,0.4,0.5,0.4l0.8-0.1c0.2,0,0.4-0.3,0.4-0.5
					l-0.1-0.9C12.4-2.1,12.2-2.2,11.9-2.2z"/>
				<path class="st1" d="M13.9-2.2l-0.8,0.1c-0.2,0-0.4,0.3-0.4,0.5l0.1,0.9c0,0.2,0.3,0.4,0.5,0.4l0.8-0.1c0.2,0,0.4-0.3,0.4-0.5
					l-0.1-0.9C14.4-2.1,14.2-2.2,13.9-2.2z"/>
				<path class="st1" d="M16-2.2l-0.8,0.1c-0.2,0-0.4,0.3-0.4,0.5l0.1,0.9c0,0.2,0.3,0.4,0.5,0.4l0.8-0.1c0.2,0,0.4-0.3,0.4-0.5
					l-0.1-0.9C16.5-2.1,16.2-2.2,16-2.2z"/>
				<path class="st1" d="M1.4-2.2L0.6-2.1c-0.2,0-0.4,0.3-0.4,0.5l0.1,0.9c0,0.2,0.3,0.4,0.5,0.4l0.8-0.1C1.8-0.4,2-0.7,2-0.9
					L1.9-1.8C1.9-2.1,1.7-2.2,1.4-2.2z"/>
				<path class="st1" d="M3.6-2.2L2.8-2.1c-0.2,0-0.4,0.3-0.4,0.5l0.1,0.9c0,0.2,0.3,0.4,0.5,0.4l0.8-0.1c0.2,0,0.4-0.3,0.4-0.5
					L4.1-1.8C4.1-2.1,3.8-2.2,3.6-2.2z"/>
				<path class="st1" d="M5.6-2.2L4.8-2.1c-0.2,0-0.4,0.3-0.4,0.5l0.1,0.9c0,0.2,0.3,0.4,0.5,0.4l0.8-0.1c0.2,0,0.4-0.3,0.4-0.5
					L6.1-1.8C6-2.1,5.8-2.2,5.6-2.2z"/>
				<path class="st1" d="M7.6-2.2L6.8-2.1c-0.2,0-0.4,0.3-0.4,0.5l0.1,0.9c0,0.2,0.3,0.4,0.5,0.4l0.8-0.1c0.2,0,0.4-0.3,0.4-0.5
					L8.1-1.8C8.1-2.1,7.9-2.2,7.6-2.2z"/>
				<path class="st1" d="M18-2.2l-0.8,0.1c-0.2,0-0.4,0.3-0.4,0.5l0.1,0.9c0,0.2,0.3,0.4,0.5,0.4l0.8-0.1c0.2,0,0.4-0.3,0.4-0.5
					l-0.1-0.9C18.5-2.1,18.2-2.2,18-2.2z"/>
				<path class="st1" d="M20.2-2.2l-0.8,0.1c-0.2,0-0.4,0.3-0.4,0.5l0.1,0.9c0,0.2,0.3,0.4,0.5,0.4l0.8-0.1c0.2,0,0.4-0.3,0.4-0.5
					l-0.1-0.9C20.6-2.1,20.4-2.2,20.2-2.2z"/>
				<path class="st1" d="M22.2-2.2l-0.8,0.1c-0.2,0-0.4,0.3-0.4,0.5l0.1,0.9c0,0.2,0.3,0.4,0.5,0.4l0.8-0.1c0.2,0,0.4-0.3,0.4-0.5
					l-0.1-0.9C22.6-2.1,22.4-2.2,22.2-2.2z"/>
				<path class="st1" d="M24.2-2.2l-0.8,0.1c-0.2,0-0.4,0.3-0.4,0.5l0.1,0.9c0,0.2,0.3,0.4,0.5,0.4l0.8-0.1c0.2,0,0.4-0.3,0.4-0.5
					l-0.1-0.9C24.7-2.1,24.5-2.2,24.2-2.2z"/>
			</g>
			<g>
				<path class="st1" d="M9.8-5L8.9-4.9c-0.2,0-0.4,0.3-0.4,0.5l0.1,0.9c0,0.2,0.3,0.4,0.5,0.4l0.8-0.1c0.2,0,0.4-0.3,0.4-0.5
					l-0.1-0.9C10.2-4.8,10-5,9.8-5z"/>
				<path class="st1" d="M11.9-5l-0.8,0.1c-0.2,0-0.4,0.3-0.4,0.5l0.1,0.9c0,0.2,0.3,0.4,0.5,0.4l0.8-0.1c0.2,0,0.4-0.3,0.4-0.5
					l-0.1-0.9C12.4-4.8,12.2-5,11.9-5z"/>
				<path class="st1" d="M13.9-5l-0.8,0.1c-0.2,0-0.4,0.3-0.4,0.5l0.1,0.9c0,0.2,0.3,0.4,0.5,0.4l0.8-0.1c0.2,0,0.4-0.3,0.4-0.5
					l-0.1-0.9C14.4-4.8,14.2-5,13.9-5z"/>
				<path class="st1" d="M16-5l-0.8,0.1c-0.2,0-0.4,0.3-0.4,0.5l0.1,0.9c0,0.2,0.3,0.4,0.5,0.4l0.8-0.1c0.2,0,0.4-0.3,0.4-0.5
					l-0.1-0.9C16.5-4.8,16.2-5,16-5z"/>
				<path class="st1" d="M1.4-5L0.6-4.9c-0.2,0-0.4,0.3-0.4,0.5l0.1,0.9c0,0.2,0.3,0.4,0.5,0.4l0.8-0.1C1.8-3.2,2-3.5,2-3.7L1.9-4.6
					C1.9-4.8,1.7-5,1.4-5z"/>
				<path class="st1" d="M3.6-5L2.7-4.9c-0.2,0-0.4,0.3-0.4,0.5l0.1,0.9c0,0.2,0.3,0.4,0.5,0.4l0.8-0.1c0.2,0,0.4-0.3,0.4-0.5v-0.9
					C4.1-4.8,3.8-5,3.6-5z"/>
				<path class="st1" d="M5.6-5L4.7-4.9c-0.2,0-0.4,0.3-0.4,0.5l0.1,0.9c0,0.2,0.3,0.4,0.5,0.4l0.8-0.1c0.2,0,0.4-0.3,0.4-0.5v-0.9
					C6-4.8,5.8-5,5.6-5z"/>
				<path class="st1" d="M7.6-5L6.8-4.9c-0.2,0-0.4,0.3-0.4,0.5l0.1,0.9c0,0.2,0.3,0.4,0.5,0.4l0.8-0.1c0.2,0,0.4-0.3,0.4-0.5
					L8.1-4.6C8.1-4.8,7.9-5,7.6-5z"/>
				<path class="st1" d="M18-5l-0.8,0.1c-0.2,0-0.4,0.3-0.4,0.5l0.1,0.9c0,0.2,0.3,0.4,0.5,0.4l0.8-0.1c0.2,0,0.4-0.3,0.4-0.5
					l-0.1-0.9C18.5-4.8,18.2-5,18-5z"/>
				<path class="st1" d="M20.2-5l-0.8,0.1c-0.2,0-0.4,0.3-0.4,0.5l0.1,0.9c0,0.2,0.3,0.4,0.5,0.4l0.8-0.1c0.2,0,0.4-0.3,0.4-0.5
					l-0.1-0.9C20.6-4.8,20.4-5,20.2-5z"/>
				<path class="st1" d="M22.2-5l-0.8,0.1c-0.2,0-0.4,0.3-0.4,0.5l0.1,0.9c0,0.2,0.3,0.4,0.5,0.4l0.8-0.1c0.2,0,0.4-0.3,0.4-0.5
					l-0.1-0.9C22.6-4.8,22.4-5,22.2-5z"/>
				<path class="st1" d="M24.2-5l-0.8,0.1c-0.2,0-0.4,0.3-0.4,0.5l0.1,0.9c0,0.2,0.3,0.4,0.5,0.4l0.8-0.1c0.2,0,0.4-0.3,0.4-0.5
					l-0.1-0.9C24.7-4.8,24.5-5,24.2-5z"/>
			</g>
			<g>
				<path class="st1" d="M9.8-7.7L8.9-7.6c-0.2,0-0.4,0.3-0.4,0.5l0.1,0.9c0,0.2,0.3,0.4,0.5,0.4l0.8-0.1c0.2,0,0.4-0.3,0.4-0.5
					l-0.1-0.9C10.2-7.6,10-7.7,9.8-7.7z"/>
				<path class="st1" d="M11.9-7.7l-0.8,0.1c-0.2,0-0.4,0.3-0.4,0.5l0.1,0.9c0,0.2,0.3,0.4,0.5,0.4l0.8-0.1c0.2,0,0.4-0.3,0.4-0.5
					l-0.1-0.9C12.4-7.6,12.2-7.7,11.9-7.7z"/>
				<path class="st1" d="M13.9-7.7l-0.8,0.1c-0.2,0-0.4,0.3-0.4,0.5l0.1,0.9c0,0.2,0.3,0.4,0.5,0.4l0.8-0.1c0.2,0,0.4-0.3,0.4-0.5
					l-0.1-0.9C14.4-7.6,14.2-7.7,13.9-7.7z"/>
				<path class="st1" d="M16-7.7l-0.8,0.1c-0.2,0-0.4,0.3-0.4,0.5l0.1,0.9c0,0.2,0.3,0.4,0.5,0.4l0.8-0.1c0.2,0,0.4-0.3,0.4-0.5
					l-0.1-0.9C16.5-7.6,16.2-7.7,16-7.7z"/>
				<path class="st1" d="M1.4-7.7L0.6-7.6c-0.2,0-0.4,0.3-0.4,0.5l0.1,0.9c0,0.2,0.3,0.4,0.5,0.4l0.8-0.1C1.9-6,2-6.2,2-6.4L1.9-7.3
					C1.9-7.6,1.7-7.7,1.4-7.7z"/>
				<path class="st1" d="M3.6-7.7L2.7-7.6c-0.2,0-0.4,0.3-0.4,0.5l0.1,0.9c0,0.2,0.3,0.4,0.5,0.4l0.8-0.1C4-6,4.2-6.2,4.2-6.4
					L4.1-7.3C4.1-7.6,3.8-7.7,3.6-7.7z"/>
				<path class="st1" d="M5.6-7.7L4.7-7.6c-0.2,0-0.4,0.3-0.4,0.5l0.1,0.9c0,0.2,0.3,0.4,0.5,0.4l0.8-0.1C6-6,6.2-6.2,6.2-6.4
					L6.1-7.3C6-7.6,5.8-7.7,5.6-7.7z"/>
				<path class="st1" d="M7.6-7.7L6.8-7.6c-0.2,0-0.4,0.3-0.4,0.5l0.1,0.9C6.5-6,6.8-5.8,7-5.8l0.8-0.1c0.2,0,0.4-0.3,0.4-0.5
					L8.1-7.3C8.1-7.6,7.9-7.7,7.6-7.7z"/>
				<path class="st1" d="M18-7.7l-0.8,0.1c-0.2,0-0.4,0.3-0.4,0.5l0.1,0.9c0,0.2,0.3,0.4,0.5,0.4l0.8-0.1c0.2,0,0.4-0.3,0.4-0.5
					l-0.1-0.9C18.5-7.6,18.2-7.7,18-7.7z"/>
				<path class="st1" d="M20.2-7.7l-0.8,0.1c-0.2,0-0.4,0.3-0.4,0.5l0,0.9c0,0.2,0.3,0.4,0.5,0.4l0.8-0.1c0.2,0,0.4-0.3,0.4-0.5
					l-0.1-0.9C20.6-7.6,20.4-7.7,20.2-7.7z"/>
				<path class="st1" d="M22.2-7.7l-0.8,0.1c-0.2,0-0.4,0.3-0.4,0.5l0,0.9c0,0.2,0.3,0.4,0.5,0.4l0.8-0.1c0.2,0,0.4-0.3,0.4-0.5
					l-0.1-0.9C22.6-7.6,22.4-7.7,22.2-7.7z"/>
				<path class="st1" d="M24.2-7.7l-0.8,0.1c-0.2,0-0.4,0.3-0.4,0.5l0.1,0.9c0,0.2,0.3,0.4,0.5,0.4l0.8-0.1c0.2,0,0.4-0.3,0.4-0.5
					l-0.1-0.9C24.7-7.6,24.5-7.7,24.2-7.7z"/>
			</g>
			<g>
				<path class="st1" d="M9.8-10.7l-0.9,0.1c-0.2,0-0.4,0.3-0.4,0.5l0.1,0.9c0,0.2,0.3,0.4,0.5,0.4l0.8-0.1c0.2,0,0.4-0.3,0.4-0.5
					l-0.1-0.9C10.2-10.5,10-10.7,9.8-10.7z"/>
				<path class="st1" d="M11.9-10.7l-0.8,0.1c-0.2,0-0.4,0.3-0.4,0.5l0.1,0.9c0,0.2,0.3,0.4,0.5,0.4l0.8-0.1c0.2,0,0.4-0.3,0.4-0.5
					l-0.1-0.9C12.4-10.5,12.2-10.7,11.9-10.7z"/>
				<path class="st1" d="M13.9-10.7l-0.8,0.1c-0.2,0-0.4,0.3-0.4,0.5l0.1,0.9c0,0.2,0.3,0.4,0.5,0.4l0.8-0.1c0.2,0,0.4-0.3,0.4-0.5
					l-0.1-0.9C14.4-10.5,14.2-10.7,13.9-10.7z"/>
				<path class="st1" d="M16-10.7l-0.8,0.1c-0.2,0-0.4,0.3-0.4,0.5l0.1,0.9c0,0.2,0.3,0.4,0.5,0.4l0.8-0.1c0.2,0,0.4-0.3,0.4-0.5
					l-0.1-0.9C16.5-10.5,16.2-10.7,16-10.7z"/>
				<path class="st1" d="M1.4-10.7l-0.8,0.1c-0.2,0-0.4,0.3-0.4,0.5l0.1,0.9c0,0.2,0.3,0.4,0.5,0.4l0.8-0.1C1.9-8.9,2-9.2,2-9.4
					l-0.1-0.9C1.9-10.5,1.7-10.7,1.4-10.7z"/>
				<path class="st1" d="M3.6-10.7l-0.9,0.1c-0.2,0-0.4,0.3-0.4,0.5l0.1,0.9c0,0.2,0.3,0.4,0.5,0.4l0.8-0.1c0.2,0,0.4-0.3,0.4-0.5
					v-0.9C4.1-10.5,3.8-10.7,3.6-10.7z"/>
				<path class="st1" d="M5.6-10.7l-0.9,0.1c-0.2,0-0.4,0.3-0.4,0.5l0.1,0.9c0,0.2,0.3,0.4,0.5,0.4l0.8-0.1c0.2,0,0.4-0.3,0.4-0.5
					v-0.9C6-10.5,5.8-10.7,5.6-10.7z"/>
				<path class="st1" d="M7.6-10.7l-0.8,0.1c-0.2,0-0.4,0.3-0.4,0.5l0.1,0.9C6.5-9,6.8-8.8,7-8.8l0.8-0.1c0.2,0,0.4-0.3,0.4-0.5
					l-0.1-0.9C8.1-10.5,7.9-10.7,7.6-10.7z"/>
				<path class="st1" d="M18-10.7l-0.8,0.1c-0.2,0-0.4,0.3-0.4,0.5l0.1,0.9c0,0.2,0.3,0.4,0.5,0.4l0.8-0.1c0.2,0,0.4-0.3,0.4-0.5
					l-0.1-0.9C18.5-10.5,18.2-10.7,18-10.7z"/>
				<path class="st1" d="M20.2-10.7l-0.8,0.1c-0.2,0-0.4,0.3-0.4,0.5l0,0.9c0,0.2,0.3,0.4,0.5,0.4l0.8-0.1c0.2,0,0.4-0.3,0.4-0.5
					l-0.1-0.9C20.6-10.5,20.4-10.7,20.2-10.7z"/>
				<path class="st1" d="M22.2-10.7l-0.8,0.1c-0.2,0-0.4,0.3-0.4,0.5l0,0.9c0,0.2,0.3,0.4,0.5,0.4l0.8-0.1c0.2,0,0.4-0.3,0.4-0.5
					l-0.1-0.9C22.6-10.5,22.4-10.7,22.2-10.7z"/>
				<path class="st1" d="M24.2-10.7l-0.8,0.1c-0.2,0-0.4,0.3-0.4,0.5l0.1,0.9c0,0.2,0.3,0.4,0.5,0.4l0.8-0.1c0.2,0,0.4-0.3,0.4-0.5
					l-0.1-0.9C24.7-10.5,24.5-10.7,24.2-10.7z"/>
			</g>
			<g>
				<path class="st1" d="M9.8-13.7l-0.9,0.1c-0.2,0-0.4,0.3-0.4,0.5l0.1,0.9c0,0.2,0.3,0.4,0.5,0.4l0.8-0.1c0.2,0,0.4-0.3,0.4-0.5
					l-0.1-0.9C10.2-13.5,10-13.7,9.8-13.7z"/>
				<path class="st1" d="M11.9-13.7l-0.8,0.1c-0.2,0-0.4,0.3-0.4,0.5l0.1,0.9c0,0.2,0.3,0.4,0.5,0.4l0.8-0.1c0.2,0,0.4-0.3,0.4-0.5
					l-0.1-0.9C12.4-13.5,12.2-13.7,11.9-13.7z"/>
				<path class="st1" d="M13.9-13.7l-0.8,0.1c-0.2,0-0.4,0.3-0.4,0.5l0.1,0.9c0,0.2,0.3,0.4,0.5,0.4l0.8-0.1c0.2,0,0.4-0.3,0.4-0.5
					l-0.1-0.9C14.4-13.5,14.2-13.7,13.9-13.7z"/>
				<path class="st1" d="M16-13.7l-0.8,0.1c-0.2,0-0.4,0.3-0.4,0.5l0.1,0.9c0,0.2,0.3,0.4,0.5,0.4l0.8-0.1c0.2,0,0.4-0.3,0.4-0.5
					l-0.1-0.9C16.5-13.5,16.2-13.7,16-13.7z"/>
				<path class="st1" d="M1.4-13.7l-0.8,0.1c-0.2,0-0.4,0.3-0.4,0.5l0.1,0.9c0,0.2,0.3,0.4,0.5,0.4l0.8-0.1c0.3,0,0.4-0.2,0.4-0.5
					l-0.1-0.9C1.9-13.5,1.7-13.7,1.4-13.7z"/>
				<path class="st1" d="M3.6-13.7l-0.9,0.1c-0.2,0-0.4,0.3-0.4,0.5l0.1,0.9c0,0.2,0.3,0.4,0.5,0.4l0.8-0.1c0.2,0,0.4-0.3,0.4-0.5
					v-0.9C4.1-13.5,3.8-13.7,3.6-13.7z"/>
				<path class="st1" d="M5.6-13.7l-0.9,0.1c-0.2,0-0.4,0.3-0.4,0.5l0.1,0.9c0,0.2,0.3,0.4,0.5,0.4l0.8-0.1c0.2,0,0.4-0.3,0.4-0.5
					v-0.9C6-13.5,5.8-13.7,5.6-13.7z"/>
				<path class="st1" d="M7.6-13.7l-0.8,0.1c-0.2,0-0.4,0.3-0.4,0.5l0.1,0.9c0,0.2,0.3,0.4,0.5,0.4l0.8-0.1c0.2,0,0.4-0.3,0.4-0.5
					l-0.1-0.9C8.1-13.5,7.9-13.7,7.6-13.7z"/>
				<path class="st1" d="M18-13.7l-0.8,0.1c-0.2,0-0.4,0.3-0.4,0.5l0.1,0.9c0,0.2,0.3,0.4,0.5,0.4l0.8-0.1c0.2,0,0.4-0.3,0.4-0.5
					l-0.1-0.9C18.5-13.5,18.2-13.7,18-13.7z"/>
				<path class="st1" d="M20.2-13.7l-0.8,0.1c-0.2,0-0.4,0.3-0.4,0.5l0,0.9c0,0.2,0.3,0.4,0.5,0.4l0.8-0.1c0.2,0,0.4-0.3,0.4-0.5
					l-0.1-0.9C20.6-13.5,20.4-13.7,20.2-13.7z"/>
				<path class="st1" d="M22.2-13.7l-0.8,0.1c-0.2,0-0.4,0.3-0.4,0.5l0,0.9c0,0.2,0.3,0.4,0.5,0.4l0.8-0.1c0.2,0,0.4-0.3,0.4-0.5
					l-0.1-0.9C22.6-13.5,22.4-13.7,22.2-13.7z"/>
				<path class="st1" d="M24.2-13.7l-0.8,0.1c-0.2,0-0.4,0.3-0.4,0.5l0.1,0.9c0,0.2,0.3,0.4,0.5,0.4l0.8-0.1c0.2,0,0.4-0.3,0.4-0.5
					l-0.1-0.9C24.7-13.5,24.5-13.7,24.2-13.7z"/>
			</g>
		</g>
	</g>
</pattern>
<rect id="background" class="st2" width="250" height="100"/>
<g id="shape2_1_">
	<path class="st3" d="M74.5,79.8V21.3H24v58.5c0,0-0.1,7.4,6.3,7.6s10-0.1,10.9,0c0,0,5.7-0.2,8,4.8c0,0,2.2-4.6,6.6-4.8
		c3.9,0,11.3-0.2,11.3-0.2S74.5,87.4,74.5,79.8z"/>
	<g>
		<line class="st4" x1="38.8" y1="47.3" x2="46.6" y2="78.9"/>
		<path class="st5" d="M33.2,23.2c0,0-9.6,1.8-7.3,14.7c2.7,10.7,11.3,10.4,12.8,10c1.4-0.2,10.2-3.4,7.6-14.7
			C43.6,20.7,33.2,23.2,33.2,23.2z"/>
		<pattern  id="SVGID_1_" xlink:href="#rectangles" patternTransform="matrix(1 0 0 -1 5 -15723)">
		</pattern>
		<path class="st6" d="M33.5,24.4c0,0-8.5,1.6-6.4,13.3c2.5,9.7,10.1,9.4,11.5,9.1c1.3-0.2,9.1-3.1,6.8-13.3
			C42.8,22.1,33.5,24.4,33.5,24.4z"/>
	</g>
	<path class="st7" d="M34,54c0,0,0.2-2.5,3.1-1.3c2.9,1.1,3.5,2,3.5,2.2s-0.6,0.8-5.4,0C35.3,54.9,33.9,54.6,34,54z"/>
	<path class="st7" d="M34.6,56.2h6.2c0,0,1,0,1,0.9s-0.9,0.8-0.9,0.8h-6.3c0,0-0.3,0.1-0.3-0.8S34.6,56.2,34.6,56.2z"/>
	<path class="st7" d="M34.9,58.6h6.2c0,0,1,0,1,0.9s-0.9,0.8-0.9,0.8h-6.3c0,0-0.3,0.1-0.3-0.8S34.9,58.6,34.9,58.6z"/>
	<path class="st7" d="M35.7,61.3h3.2c0,0,0.9,0.1,0.9,0.4S38.4,63,37.1,63S34.5,61.3,35.7,61.3z"/>
	<path class="st7" d="M43.9,63.8h3.8c0,0,0.7,0.3,0.8-3.6s0.2-3.6-1-4.1S45.6,53,45.6,53s-2.3-3.5-4.7-3.6c-2.3-0.1-2.4-0.4-2.4-0.4
		s-1.1-0.6-1.3,0s0.2,1.3,1.1,2c1,0.7,2.7,1.2,2.7,1.2s1.1,0.4,1.3,1.7c0.1,1.2,1.5,2.4,1.5,2.4s0.2,0.8,0.1,1.7
		c-0.1,0.9,0.1,2.7-0.4,2.8s-2.3,1.1-2.3,2.1S42.3,63.8,43.9,63.8z"/>
	<path class="st7" d="M50,57.6h21.5c0,0,0.7,25.5,0,26.3c-0.7,0.8-7.4,0.8-10.4,0.8s-8.5-0.5-11.1,1.6V57.6z"/>
</g>
<g id="shape_1">
	<path class="st8" d="M110.1,71.9V13.4H59.6v58.5c0,0-0.1,7.4,6.3,7.6s10-0.1,10.9,0c0,0,5.7-0.2,8,4.8c0,0,2.2-4.6,6.6-4.8
		c3.9,0,11.3-0.2,11.3-0.2S110.1,79.6,110.1,71.9z"/>
	<path class="st7" d="M85.9,48.9h4v30.5c0,0-3.9,1.6-4,2.9V48.9z"/>
	<path class="st7" d="M103.3,48.9h3.8v29.2c0,0-3.2,1.2-3.8,1.2V48.9z"/>
	<g>
		<g>
			<path class="st9" d="M76.7,58.7l2.6,12.9l1.4-0.3c0,0-2-12.6-2.1-12.9L76.7,58.7z"/>
			<path class="st9" d="M79.1,70.6c0,0,1.2,0,1.6,0.2"/>
			<path class="st9" d="M77,59.8c0,0,1.5,0.1,2,0.3"/>
			<path class="st9" d="M78.3,66.6c0,0,1.4,0.1,1.8,0.3"/>
			<path class="st9" d="M77.9,65.2c0,0,1.5,0.1,2,0.3"/>
			<path class="st9" d="M77.7,63.8c0,0,1.4,0.1,1.9,0.3"/>
			<path class="st9" d="M77.5,62.5c0,0,1.5,0.1,2,0.3"/>
			<path class="st9" d="M77.3,61.2c0,0,1.5,0.1,2,0.3"/>
			<path class="st9" d="M78.9,69.5c0,0,1.2,0.1,1.6,0.2"/>
			<path class="st9" d="M78.8,68.1c0,0,1.2,0,1.6,0.2"/>
			<g>
				<path class="st10" d="M66.6,18.3c0,0,0.5-2.8,3.4-3.2s4,1.4,4.2,2c0.7,2.6,1,3.7,1.9,11.5c1,7.7,2.6,29.6,2.6,29.6
					s-0.5,2-1.9,0.6c0,0-3-9.6-4-13.6C72,41.7,65.9,21.2,66.6,18.3z"/>
				<path class="st11" d="M66.6,18.3c0,0,0.5-2.8,3.4-3.2s4,1.4,4.2,2c0.7,2.6,1,3.7,1.9,11.5c1,7.7,2.6,29.6,2.6,29.6
					s-0.5,2-1.9,0.6c0,0-3-9.6-4-13.6C72,41.7,65.9,21.2,66.6,18.3z"/>
			</g>
			<path class="st7" d="M80.1,71.2c0,0,1.9-0.3,2.2,0.7c0.3,1.2-1.8,1.6-1.8,1.6s-1.7,0.4-2.1-0.7C78.2,71.5,80.1,71.2,80.1,71.2z"
				/>
		</g>
	</g>
	<path class="st7" d="M80.3,56.5h3.8c0,0,0.7,0.3,0.8-3.6c0.1-3.9,0.2-3.6-1-4.1S82,45.7,82,45.7s-2.3-3.5-4.7-3.6s-2.4-0.4-2.4-0.4
		s-1.1-0.6-1.3,0c-0.3,0.6,0.2,1.3,1.1,2s2.7,1.2,2.7,1.2s1.1,0.4,1.3,1.7c0.1,1.2,1.5,2.4,1.5,2.4s0.2,0.8,0.1,1.7s0.1,2.7-0.4,2.8
		s-2.3,1.1-2.3,2.1S78.7,56.5,80.3,56.5z"/>
	<path class="st7" d="M70.4,46.7c0,0,0.2-2.5,3.1-1.3s3.5,2,3.5,2.2s-0.6,0.8-5.4,0C71.6,47.6,70.3,47.4,70.4,46.7z"/>
	<path class="st7" d="M71,48.9h6.2c0,0,1,0,1,0.9s-0.9,0.8-0.9,0.8H71c0,0-0.3,0.1-0.3-0.8S71,48.9,71,48.9z"/>
	<path class="st7" d="M71.2,51.3h6.2c0,0,1,0,1,0.9S77.5,53,77.5,53h-6.3c0,0-0.3,0.1-0.3-0.8S71.2,51.3,71.2,51.3z"/>
	<path class="st7" d="M72,54h3.2c0,0,0.9,0.1,0.9,0.4s-1.3,1.3-2.7,1.3C72.1,55.7,70.9,54,72,54z"/>
	<g id="pattern">
		<line class="st12" x1="90.8" y1="49.5" x2="92.8" y2="51.4"/>
		<line class="st12" x1="92.8" y1="49.6" x2="90.7" y2="51.4"/>
		<line class="st12" x1="100.5" y1="49.5" x2="102.5" y2="51.4"/>
		<line class="st12" x1="102.5" y1="49.6" x2="100.4" y2="51.4"/>
		<line class="st12" x1="97.2" y1="49.5" x2="99.2" y2="51.4"/>
		<line class="st12" x1="99.3" y1="49.6" x2="97.1" y2="51.4"/>
		<line class="st12" x1="94" y1="49.5" x2="96" y2="51.4"/>
		<line class="st12" x1="96" y1="49.6" x2="93.9" y2="51.4"/>
		<line class="st12" x1="90.8" y1="53.3" x2="92.8" y2="55.2"/>
		<line class="st12" x1="92.8" y1="53.4" x2="90.7" y2="55.2"/>
		<line class="st12" x1="100.5" y1="53.3" x2="102.5" y2="55.2"/>
		<line class="st12" x1="102.5" y1="53.4" x2="100.4" y2="55.2"/>
		<line class="st12" x1="97.2" y1="53.3" x2="99.2" y2="55.2"/>
		<line class="st12" x1="99.3" y1="53.4" x2="97.1" y2="55.2"/>
		<line class="st12" x1="94" y1="53.3" x2="96" y2="55.2"/>
		<line class="st12" x1="96" y1="53.4" x2="93.9" y2="55.2"/>
		<line class="st12" x1="90.8" y1="57.1" x2="92.8" y2="59"/>
		<line class="st12" x1="92.8" y1="57.2" x2="90.7" y2="59"/>
		<line class="st12" x1="100.5" y1="57.1" x2="102.5" y2="59"/>
		<line class="st12" x1="102.5" y1="57.2" x2="100.4" y2="59"/>
		<line class="st12" x1="97.2" y1="57.1" x2="99.2" y2="59"/>
		<line class="st12" x1="99.3" y1="57.2" x2="97.1" y2="59"/>
		<line class="st12" x1="94" y1="57.1" x2="96" y2="59"/>
		<line class="st12" x1="96" y1="57.2" x2="93.9" y2="59"/>
		<line class="st12" x1="90.8" y1="60.9" x2="92.8" y2="62.8"/>
		<line class="st12" x1="92.8" y1="61" x2="90.7" y2="62.8"/>
		<line class="st12" x1="100.5" y1="60.9" x2="102.5" y2="62.8"/>
		<line class="st12" x1="102.5" y1="61" x2="100.4" y2="62.8"/>
		<line class="st12" x1="97.2" y1="60.9" x2="99.2" y2="62.8"/>
		<line class="st12" x1="99.3" y1="61" x2="97.1" y2="62.8"/>
		<line class="st12" x1="94" y1="60.9" x2="96" y2="62.8"/>
		<line class="st12" x1="96" y1="61" x2="93.9" y2="62.8"/>
		<line class="st12" x1="90.8" y1="64.7" x2="92.8" y2="66.6"/>
		<line class="st12" x1="92.8" y1="64.8" x2="90.7" y2="66.6"/>
		<line class="st12" x1="100.5" y1="64.7" x2="102.5" y2="66.6"/>
		<line class="st12" x1="102.5" y1="64.8" x2="100.4" y2="66.6"/>
		<line class="st12" x1="97.2" y1="64.7" x2="99.2" y2="66.6"/>
		<line class="st12" x1="99.3" y1="64.8" x2="97.1" y2="66.6"/>
		<line class="st12" x1="94" y1="64.7" x2="96" y2="66.6"/>
		<line class="st12" x1="96" y1="64.8" x2="93.9" y2="66.6"/>
		<line class="st12" x1="90.8" y1="68.5" x2="92.8" y2="70.4"/>
		<line class="st12" x1="92.8" y1="68.5" x2="90.7" y2="70.4"/>
		<line class="st12" x1="100.5" y1="68.5" x2="102.5" y2="70.4"/>
		<line class="st12" x1="102.5" y1="68.5" x2="100.4" y2="70.4"/>
		<line class="st12" x1="97.2" y1="68.5" x2="99.2" y2="70.4"/>
		<line class="st12" x1="99.3" y1="68.5" x2="97.1" y2="70.4"/>
		<line class="st12" x1="94" y1="68.5" x2="96" y2="70.4"/>
		<line class="st12" x1="96" y1="68.5" x2="93.9" y2="70.4"/>
		<line class="st12" x1="90.8" y1="72.3" x2="92.8" y2="74.2"/>
		<line class="st12" x1="92.8" y1="72.3" x2="90.7" y2="74.2"/>
		<line class="st12" x1="100.5" y1="72.3" x2="102.5" y2="74.2"/>
		<line class="st12" x1="102.5" y1="72.3" x2="100.4" y2="74.2"/>
		<line class="st12" x1="97.2" y1="72.3" x2="99.2" y2="74.2"/>
		<line class="st12" x1="99.3" y1="72.3" x2="97.1" y2="74.2"/>
		<line class="st12" x1="94" y1="72.3" x2="96" y2="74.2"/>
		<line class="st12" x1="96" y1="72.3" x2="93.9" y2="74.2"/>
		<line class="st12" x1="90.8" y1="76.1" x2="92.8" y2="78"/>
		<line class="st12" x1="92.8" y1="76.1" x2="90.7" y2="77.9"/>
		<line class="st12" x1="100.5" y1="76.1" x2="102.5" y2="78"/>
		<line class="st12" x1="102.5" y1="76.1" x2="100.4" y2="77.9"/>
		<line class="st12" x1="97.2" y1="76.1" x2="99.2" y2="78"/>
		<line class="st12" x1="99.3" y1="76.1" x2="97.1" y2="77.9"/>
		<line class="st12" x1="94" y1="76.1" x2="96" y2="78"/>
		<line class="st12" x1="96" y1="76.1" x2="93.9" y2="77.9"/>
	</g>
</g>
<g id="text_1_">
	<g>
		<path class="st13" d="M96.4,76.9c0.9,0,1.5-0.3,1.5-1l0,0c0-0.7-1-1.5-1.8-1.9C95,73.4,94,72.9,94,71.9v-0.1
			c0-1.8,1.5-2.2,2.6-2.2h0.2h0.1c0.6,0,1.6,0.2,2.1,1c-0.1,0.5-0.8,0.9-1.4,0.9c0-0.8-0.5-1.5-1.1-1.5l0,0c-0.8,0-1.3,0.4-1.3,1.2
			l0,0c0,1.4,4.1,1.7,4.1,4.3c0,1.3-1,1.9-2.8,1.9c-1.2,0-2.6-0.3-2.6-1.1c0-0.7,0.5-1,1.4-1.2C95,75.5,95,75.6,95,75.8
			C95,76.5,95.8,76.9,96.4,76.9z"/>
		<path class="st13" d="M101.5,69.6L101.5,69.6L101.5,69.6c0.5,0,1,0.6,1,1.2v0.1c0.6-0.8,1.4-1.3,2.3-1.3c1.9,0,3.4,1.3,3.4,3.7
			c0,2.5-1.6,4.2-3.8,4.2c-0.8,0-1.2-0.3-1.9-0.7v3.6c0,0.1,0,0.2,0,0.4c0,0.6,0.2,0.9,0.7,1c-0.4,0.5-0.8,0.8-1.5,0.8l0,0
			c-0.4,0-0.7-0.4-0.7-1.3V71.2c-0.1-0.6-0.3-1-0.6-1h-0.1C100.6,69.8,101,69.6,101.5,69.6z M102.5,75.2c0,0.9,0.8,1.9,1.9,1.9
			c1.4,0,2.3-0.8,2.3-3s-0.9-3.5-2.5-3.5c-0.8,0-1.6,0.7-1.6,1.2v3.4H102.5z"/>
		<path class="st13" d="M117.7,73.4c0,2.5-1.7,4.1-4,4.1c-2.2,0-4-1.4-4-4c0-2.5,1.6-3.9,4-3.9C116,69.6,117.7,70.9,117.7,73.4z
			 M111.3,73.1c0,2.1,1.4,3.8,2.8,3.8c1.2,0,2.1-1.3,2.1-2.8c0-2.1-1.4-3.8-2.8-3.8C112.1,70.2,111.3,71.6,111.3,73.1z"/>
		<path class="st13" d="M119.9,75.7v-3.9v-0.3c0-0.9-0.2-1.1-0.6-1.3c0.2-0.3,0.8-0.6,1.2-0.6h0.1c0.4,0,0.8,0.3,0.8,1.3
			c0.5-0.5,1.4-1.3,2.3-1.3h0.1c0.2,0.5,0.5,0.9,0.9,1c-0.3,0.4-0.6,0.9-1.1,0.9c-0.4,0-0.7-0.5-0.7-1.1h-0.1
			c-0.6,0-1.4,1.1-1.4,2.3v3.1c0,0.7,0.2,1.1,0.7,1.2c-0.1,0.2-0.7,0.6-1.2,0.6C120.3,77.5,119.9,76.9,119.9,75.7z"/>
		<path class="st13" d="M129.4,69.9v0.6h-1.6v4.4c0,1.7,0.3,2.1,0.9,2.1c-0.3,0.3-0.9,0.6-1.3,0.6c-0.7,0-1.2-0.8-1.2-2.4V69
			c0-0.9-0.1-1.3-0.5-1.3c0.3-0.4,0.8-0.7,1.2-0.7h0.1c0.4,0,0.7,0.4,0.7,1.4v1.5H129.4z"/>
		<path class="st13" d="M133.2,76.9c0.9,0,1.5-0.3,1.5-1l0,0c0-0.7-1-1.5-1.8-1.9c-1.1-0.6-2.1-1.1-2.1-2.1v-0.1
			c0-1.8,1.5-2.2,2.6-2.2h0.2h0.1c0.6,0,1.6,0.2,2.1,1c-0.1,0.5-0.8,0.9-1.4,0.9c0-0.8-0.5-1.5-1.1-1.5l0,0c-0.8,0-1.3,0.4-1.3,1.2
			l0,0c0,1.4,4.1,1.7,4.1,4.3c0,1.3-1,1.9-2.8,1.9c-1.2,0-2.6-0.3-2.6-1.1c0-0.7,0.5-1,1.4-1.2c-0.1,0.2-0.2,0.4-0.2,0.5
			C131.8,76.5,132.6,76.9,133.2,76.9z"/>
	</g>
	<g>
		<path class="st14" d="M105,53.9H93v-0.4c1.6-0.4,2.1-1.1,2.1-3.2V36.5V36c0-1.7-0.8-2.4-2.1-2.8v-0.4h9.4c6.6,0,10.1,1.8,10.1,5.5
			c0,2.7-2.2,4.2-4.1,4.8c4,1.1,5.3,2.9,5.3,5.1C113.6,51.3,110.9,53.9,105,53.9z M101.8,34.7h-1.6c-0.1,0-0.3,0.1-0.3,0.5v6.9h2.9
			c3,0,4.6-1.5,4.6-3.7C107.4,36,105.5,34.7,101.8,34.7z M105.5,44.8c-1-0.4-3.2-0.6-5.6-0.6v7.1c0,0.7,0.6,0.8,1.8,0.8
			c4.6,0,6.5-1.3,6.5-3.8C108.2,46.5,107.3,45.5,105.5,44.8z"/>
		<path class="st14" d="M116.7,50.9V36.5c0-1.6-0.3-2.3-1.2-2.3h-0.1l3.3-1.8c1,0,2.2,0.9,2.2,2.5v16c0,1,0.3,1.5,1.1,1.6v0.2
			c-0.1,0.4-1.7,1.5-2.8,1.5C118.2,54.3,116.7,53.7,116.7,50.9z"/>
		<path class="st14" d="M135.3,52.2c-1.1,1-2.7,2.1-4,2.1H131c-2.5,0-5.4-1.3-5.4-4.3v-5.1v-0.4c0-1.3-0.3-1.6-1.2-2
			c1.1-1,2.4-1.5,3.5-1.5c1.1,0.5,2,1.3,2,2.5v6.7c0,1.4,1,2,2.3,2h0.3c0.7,0,2.4-1,2.4-2V45v-0.4c0-1.3-0.4-1.7-1.4-2.1
			c1.3-0.9,2.7-1.5,3.7-1.5c1.2,0.6,2,1.1,2,2.5v7.6c0,1,0.3,1.4,1.3,1.5v0.2c-0.3,0.4-1.8,1.5-2.8,1.5
			C137.1,54.3,135.7,54.2,135.3,52.2z"/>
		<path class="st14" d="M151.6,51.7c1,0,2.6-0.2,3.7-0.5l0.9,0.9v0.2c-2,1.2-3.6,2-6.5,2c-3.6,0-7-2.7-7-5.9v-0.1V48
			c0-4.3,3-7.1,8.2-7.1h0.1c2.1,0,4.4,0.9,4.4,2.8c0,2.4-3.9,4.1-8.5,4.7C147.1,50.2,148.8,51.7,151.6,51.7z M150.5,42.6
			c-2.6,0-3.7,2.1-3.7,4.1c4-1.1,4.6-1.3,4.6-3.4C151.4,43,151,42.6,150.5,42.6z"/>
		<path class="st14" d="M183.7,39.3c-2,0-2.8-1.3-2.9-3c0.6,0,1-0.2,1-0.4c0-0.9-1.5-1.3-2.7-1.3h-0.4c-1.8,0-3.6,0.8-3.6,2.3
			c0,1.4,1.5,2.8,4.6,4.3c4.7,2.2,7.3,4.6,7.3,7.2c0,3.8-4.2,5.9-8.7,5.9c-3.8,0-8.6-0.5-8.6-3.1c0-1.7,1.7-2.8,3.4-2.8h0.1h0.1
			c1,0.1,2.1,1.1,2.2,2c-0.6,0.1-1,0.4-1,0.8v0.1l0,0c0,0.6,2.1,1,3.9,1c2.1,0,3.7-1.1,3.7-2.9c0-1.8-2.2-3.5-5.5-5.1
			c-4-1.8-5.9-3.7-5.9-6.3c0-3.3,4.3-5.6,7.7-5.6s8.1,1.3,8.1,4.3C186.5,38.5,185.7,39.3,183.7,39.3z"/>
		<path class="st14" d="M194.5,43.1v6.6c0.1,2.4,0.7,3,1.9,3c-0.7,0.8-2.1,1.7-3.1,1.7c-1.6,0-2.9-1.5-2.9-4.3v-9.7
			c0-0.2,0-0.3,0-0.5c0-0.9-0.4-1.3-1.1-1.4c0.9-1,2.4-1.8,3.3-1.8h0.1c1,0,1.8,0.7,1.8,2.7v2.1h2.8v1.7L194.5,43.1L194.5,43.1z"/>
		<path class="st14" d="M207.7,51.7c1,0,2.6-0.2,3.7-0.5l0.9,0.9v0.2c-2,1.2-3.6,2-6.5,2c-3.6,0-7-2.7-7-5.9v-0.1V48
			c0-4.3,3-7.1,8.2-7.1h0.1c2.1,0,4.4,0.9,4.4,2.8c0,2.4-3.9,4.1-8.5,4.7C203.2,50.2,204.8,51.7,207.7,51.7z M206.6,42.6
			c-2.6,0-3.7,2.1-3.7,4.1c4-1.1,4.6-1.3,4.6-3.4C207.5,43,207.1,42.6,206.6,42.6z"/>
		<path class="st14" d="M222.9,51.7c1,0,2.6-0.2,3.7-0.5l0.9,0.9v0.2c-2,1.2-3.6,2-6.5,2c-3.6,0-7-2.7-7-5.9v-0.1V48
			c0-4.3,3-7.1,8.2-7.1h0.1c2.1,0,4.4,0.9,4.4,2.8c0,2.4-3.9,4.1-8.5,4.7C218.3,50.2,220,51.7,222.9,51.7z M221.8,42.6
			c-2.6,0-3.7,2.1-3.7,4.1c4-1.1,4.6-1.3,4.6-3.4C222.6,43,222.3,42.6,221.8,42.6z"/>
		<path class="st14" d="M230.4,50.9V36.5c0-1.6-0.3-2.3-1.2-2.3h-0.1l3.3-1.8c1,0,2.2,0.9,2.2,2.5v16c0,1,0.3,1.5,1.1,1.6v0.2
			c-0.1,0.4-1.7,1.5-2.8,1.5C231.9,54.3,230.4,53.7,230.4,50.9z"/>
	</g>
	<g>
		<g>
			<path class="st10" d="M157.1,25.6c-0.1-0.3-0.3-0.6-0.4-0.9c-0.1-0.3-0.3-0.6-0.4-0.9c-0.1-0.3-0.3-0.6-0.4-0.9s-0.3-0.6-0.4-0.9
				c-0.1-0.2-0.2-0.3-0.3-0.4s-0.2-0.1-0.4-0.2c0-0.1-0.1-0.1-0.1-0.2s0-0.1,0-0.2c0.2,0,0.3,0,0.5,0s0.4,0,0.7,0s0.5,0,0.7,0
				s0.4,0,0.6,0c0,0.1,0,0.1,0,0.2s0,0.2,0,0.2c-0.2,0-0.4,0.1-0.5,0.1s-0.1,0.1-0.1,0.2s0,0.2,0.1,0.3c0.2,0.4,0.4,0.8,0.6,1.2
				c0.2,0.4,0.4,0.9,0.5,1.2h-0.2l1.6-3.4c0.1,0,0.1,0,0.2,0c0.1,0,0.2,0,0.3,0c0.3,0.5,0.5,1,0.9,1.7c0.3,0.6,0.6,1.2,0.9,1.8h-0.2
				l0.8-1.8c0.1-0.3,0.2-0.6,0.2-0.7c0-0.2-0.1-0.3-0.2-0.4s-0.3-0.1-0.5-0.1c0-0.1-0.1-0.1-0.1-0.2s0-0.1,0-0.2c0.2,0,0.3,0,0.5,0
				s0.4,0,0.5,0c0.2,0,0.4,0,0.6,0s0.3,0,0.5,0c0,0.1,0,0.2,0,0.2c0,0.1,0,0.1-0.1,0.2c-0.1,0-0.2,0.1-0.3,0.1
				c-0.1,0.1-0.2,0.2-0.2,0.4c-0.1,0.2-0.2,0.4-0.3,0.7l-1.2,2.8c0,0-0.1,0-0.2,0.1c-0.1,0-0.1,0-0.2,0c-0.1,0-0.1,0-0.2,0
				c-0.2-0.4-0.4-0.8-0.6-1.2c-0.2-0.4-0.4-0.8-0.6-1.2c-0.2-0.4-0.4-0.8-0.6-1.1l0.4-0.2l-1.8,3.6c0,0-0.1,0-0.1,0.1s-0.1,0-0.2,0
				S157.2,25.6,157.1,25.6z"/>
			<path class="st10" d="M164.2,25.6c0-0.1,0-0.1,0-0.2s0-0.1,0-0.2c0.3,0,0.5-0.1,0.6-0.2s0.2-0.3,0.2-0.7v-1.9
				c0-0.1,0-0.3-0.1-0.4c0-0.1-0.1-0.2-0.2-0.2c-0.1-0.1-0.3-0.1-0.6-0.1c0-0.1,0-0.1,0-0.2s0-0.1,0.1-0.2c0.1,0,0.3,0,0.5,0
				s0.4-0.1,0.6-0.1c0.2,0,0.4-0.1,0.5-0.2c0.1,0,0.1,0.1,0.2,0.1s0.1,0.1,0.1,0.3v2.9c0,0.3,0.1,0.5,0.2,0.7
				c0.1,0.1,0.3,0.2,0.5,0.2c0,0.1,0,0.1,0,0.2s0,0.1,0,0.2c-0.1,0-0.3,0-0.4,0c-0.2,0-0.3,0-0.5,0s-0.3,0-0.5,0s-0.3,0-0.5,0
				s-0.3,0-0.5,0C164.4,25.6,164.3,25.6,164.2,25.6z M165.5,19.9c-0.2,0-0.4-0.1-0.5-0.2s-0.2-0.2-0.2-0.4c0-0.2,0.1-0.3,0.2-0.4
				c0.1-0.1,0.3-0.2,0.5-0.2s0.4,0.1,0.5,0.2s0.2,0.3,0.2,0.4s-0.1,0.3-0.2,0.4S165.7,19.9,165.5,19.9z"/>
			<path class="st10" d="M169.8,25.6c-0.5,0-0.8-0.1-1-0.3c-0.2-0.2-0.3-0.5-0.3-1v-2.6c-0.1,0-0.2-0.1-0.4-0.1c-0.1,0-0.3,0-0.5,0
				c0-0.1,0-0.2,0-0.2c0-0.1,0-0.1,0.1-0.2h0.8v-1.3c0.2,0,0.3-0.1,0.5-0.2s0.3-0.1,0.4-0.2c0.1,0,0.1,0.1,0.2,0.1
				c0,0.1,0,0.2,0,0.4v1.2h1.5c0,0.1,0,0.1,0,0.2s0,0.1-0.1,0.2c-0.3,0-0.5,0-0.8,0c-0.2,0-0.5,0-0.7,0.1v2.4c0,0.2,0,0.4,0.1,0.5
				s0.1,0.2,0.2,0.3c0.1,0.1,0.2,0.1,0.4,0.1s0.3,0,0.4-0.1c0.1,0,0.2-0.1,0.4-0.2c0.1,0.1,0.2,0.2,0.2,0.3
				c-0.1,0.1-0.3,0.2-0.6,0.3C170.3,25.6,170,25.6,169.8,25.6z"/>
			<path class="st10" d="M172.7,20c0-0.1,0-0.3-0.1-0.4c0-0.1-0.1-0.2-0.2-0.2c-0.1-0.1-0.3-0.1-0.6-0.1c0-0.1,0-0.1,0-0.2
				s0-0.1,0.1-0.2c0.1,0,0.3,0,0.5,0s0.4-0.1,0.6-0.1c0.2,0,0.4-0.1,0.5-0.2c0.1,0,0.1,0.1,0.2,0.1s0.1,0.1,0.1,0.3v1.3h-1.1V20z
				 M177.3,24.3c0,0.3,0.1,0.6,0.2,0.7s0.3,0.2,0.5,0.2c0,0.1,0,0.1,0,0.2s0,0.1,0,0.2c-0.2,0-0.4,0-0.6,0c-0.2,0-0.5,0-0.7,0
				s-0.3,0-0.5,0s-0.3,0-0.5,0s-0.3,0-0.4,0c0-0.1,0-0.2,0-0.2c0-0.1,0-0.1,0-0.2c0.3,0,0.5-0.1,0.6-0.2s0.2-0.3,0.2-0.7v-1.5
				c0-0.5-0.1-0.8-0.3-0.9c-0.2-0.2-0.5-0.2-0.8-0.2c-0.2,0-0.4,0.1-0.6,0.2c-0.2,0.1-0.4,0.3-0.5,0.5s-0.2,0.5-0.2,0.9v1
				c0,0.3,0.1,0.5,0.2,0.7c0.1,0.1,0.3,0.2,0.6,0.2c0,0.1,0,0.1,0,0.2s0,0.1,0,0.2c-0.1,0-0.2,0-0.4,0s-0.3,0-0.5,0s-0.3,0-0.5,0
				s-0.3,0-0.5,0s-0.3,0-0.5,0s-0.3,0-0.4,0c0-0.1,0-0.2,0-0.2c0-0.1,0-0.1,0-0.2c0.3,0,0.5-0.1,0.6-0.2s0.2-0.3,0.2-0.7v-1.9
				l1.1-0.9c0,0.1,0,0.2,0,0.3s0,0.2-0.1,0.3c0,0,0-0.1,0.1-0.1l0.1-0.1c0.1-0.1,0.3-0.3,0.6-0.5s0.7-0.2,1.1-0.2
				c0.3,0,0.6,0.1,0.8,0.1c0.3,0.1,0.5,0.3,0.6,0.5c0.2,0.2,0.2,0.5,0.2,0.9v1.6H177.3z M172.7,20h1.1v1.5l-1.1,1.1V20z"/>
			<path class="st10" d="M183.4,25.6c-0.5,0-0.8-0.1-1-0.3c-0.2-0.2-0.3-0.5-0.3-1v-2.6c-0.1,0-0.2-0.1-0.4-0.1c-0.1,0-0.3,0-0.5,0
				c0-0.1,0-0.2,0-0.2c0-0.1,0-0.1,0.1-0.2h0.8v-1.3c0.2,0,0.3-0.1,0.5-0.2s0.3-0.1,0.4-0.2c0.1,0,0.1,0.1,0.2,0.1
				c0,0.1,0,0.2,0,0.4v1.2h1.5c0,0.1,0,0.1,0,0.2s0,0.1-0.1,0.2c-0.3,0-0.5,0-0.8,0c-0.2,0-0.5,0-0.7,0.1v2.4c0,0.2,0,0.4,0.1,0.5
				s0.1,0.2,0.2,0.3c0.1,0.1,0.2,0.1,0.4,0.1s0.3,0,0.4-0.1c0.1,0,0.2-0.1,0.4-0.2c0.1,0.1,0.2,0.2,0.2,0.3
				c-0.1,0.1-0.3,0.2-0.6,0.3C183.9,25.6,183.6,25.6,183.4,25.6z"/>
			<path class="st10" d="M187.9,25.6c-0.6,0-1-0.1-1.4-0.3c-0.4-0.2-0.7-0.5-0.8-0.8s-0.3-0.7-0.3-1.2c0-0.4,0.1-0.8,0.3-1.1
				c0.2-0.3,0.5-0.6,0.9-0.8c0.4-0.2,0.8-0.3,1.3-0.3s0.9,0.1,1.2,0.3c0.3,0.2,0.5,0.4,0.7,0.7c0.2,0.3,0.2,0.6,0.3,1
				c0,0.1-0.1,0.2-0.2,0.3c-0.1,0-0.3,0-0.6,0s-0.6,0-0.9,0c-0.3,0-0.7,0-1,0c-0.4,0-0.7,0-1,0v-0.5h2.5c0-0.4-0.1-0.8-0.3-1
				s-0.5-0.4-0.8-0.4c-0.2,0-0.4,0-0.6,0.1c-0.2,0.1-0.3,0.3-0.5,0.5s-0.2,0.6-0.2,1c0,0.3,0,0.6,0.1,0.9s0.3,0.5,0.5,0.7
				s0.6,0.3,1.1,0.3c0.3,0,0.5,0,0.8-0.1s0.5-0.2,0.7-0.4c0.1,0,0.1,0.1,0.2,0.1s0.1,0.1,0.1,0.2c-0.3,0.3-0.6,0.5-0.9,0.6
				C188.8,25.6,188.4,25.6,187.9,25.6z"/>
			<path class="st10" d="M194.6,25.6c-0.1,0-0.2-0.1-0.2-0.2c-0.1-0.1-0.1-0.2-0.1-0.4c0-0.1,0-0.1,0-0.2s0-0.2,0-0.2l0,0
				c0,0.1-0.1,0.2-0.2,0.3c-0.1,0.1-0.2,0.2-0.3,0.3c-0.1,0.1-0.3,0.2-0.5,0.2c-0.2,0.1-0.5,0.1-0.8,0.1c-0.5,0-0.9-0.1-1.1-0.3
				c-0.3-0.2-0.4-0.4-0.4-0.7c0-0.3,0.1-0.5,0.2-0.6s0.3-0.3,0.6-0.4s0.5-0.2,0.8-0.3c0.3-0.1,0.5-0.1,0.8-0.2
				c0.3,0,0.5-0.1,0.7-0.1c0-0.3,0-0.5,0-0.6s0-0.3-0.1-0.4c0-0.1-0.1-0.2-0.2-0.2c-0.1-0.1-0.2-0.2-0.3-0.2s-0.3-0.1-0.4-0.1
				c-0.3,0-0.5,0.1-0.6,0.2s-0.3,0.3-0.3,0.5c-0.1,0.2-0.1,0.3-0.1,0.5c-0.1,0-0.2,0-0.3,0s-0.2,0-0.3-0.1c0-0.2,0-0.3,0-0.5
				s0-0.4-0.1-0.5c0.3-0.1,0.7-0.2,1-0.3c0.4-0.1,0.7-0.1,1-0.1s0.5,0,0.8,0.1c0.2,0.1,0.4,0.2,0.5,0.3c0.2,0.2,0.3,0.4,0.4,0.6
				c0.1,0.3,0.1,0.6,0.1,1v1.1c0,0.2,0,0.3,0,0.4s0.1,0.2,0.2,0.2c0.1,0,0.3,0.1,0.5,0.1c0,0.1,0,0.1,0,0.2s0,0.2-0.1,0.2
				c-0.2,0-0.4,0-0.7,0.1C195,25.5,194.8,25.5,194.6,25.6z M193,25.1c0.2,0,0.4,0,0.5-0.1c0.2-0.1,0.3-0.2,0.5-0.4
				c0.1-0.2,0.2-0.5,0.2-0.8v-0.4c-0.2,0-0.4,0-0.6,0.1c-0.2,0-0.4,0.1-0.6,0.2c-0.2,0.1-0.3,0.2-0.5,0.3s-0.2,0.3-0.2,0.5
				s0.1,0.4,0.2,0.5C192.7,25,192.8,25.1,193,25.1z"/>
			<path class="st10" d="M201.3,25.6c-0.5,0-0.8-0.1-1-0.3c-0.2-0.2-0.3-0.5-0.3-1v-2.6c-0.1,0-0.2-0.1-0.4-0.1c-0.1,0-0.3,0-0.5,0
				c0-0.1,0-0.2,0-0.2c0-0.1,0-0.1,0.1-0.2h0.8v-1.3c0.2,0,0.3-0.1,0.5-0.2s0.3-0.1,0.4-0.2c0.1,0,0.1,0.1,0.2,0.1
				c0,0.1,0,0.2,0,0.4v1.2h1.5c0,0.1,0,0.1,0,0.2s0,0.1-0.1,0.2c-0.3,0-0.5,0-0.8,0c-0.2,0-0.5,0-0.7,0.1v2.4c0,0.2,0,0.4,0.1,0.5
				s0.1,0.2,0.2,0.3c0.1,0.1,0.2,0.1,0.4,0.1s0.3,0,0.4-0.1c0.1,0,0.2-0.1,0.4-0.2c0.1,0.1,0.2,0.2,0.2,0.3
				c-0.1,0.1-0.3,0.2-0.6,0.3C201.8,25.6,201.5,25.6,201.3,25.6z"/>
			<path class="st10" d="M204.3,23.5v-1.1c0-0.1,0-0.3-0.1-0.4c0-0.1-0.1-0.2-0.3-0.2c-0.1-0.1-0.3-0.1-0.6-0.1c0-0.1,0-0.1,0-0.2
				s0-0.1,0.1-0.2c0.2,0,0.5-0.1,0.8-0.1c0.3-0.1,0.6-0.1,0.8-0.2c0.1,0,0.1,0.1,0.2,0.1s0.1,0.2,0.1,0.3L204.3,23.5z M205.4,24.1
				c0,0.3,0,0.5,0.1,0.6s0.2,0.2,0.3,0.3c0.2,0.1,0.4,0.1,0.6,0.1c0,0.1,0,0.1,0,0.2s0,0.1,0,0.2c-0.1,0-0.3,0-0.4,0
				c-0.2,0-0.3,0-0.5,0s-0.4,0-0.6,0c-0.3,0-0.6,0-0.9,0c-0.3,0-0.5,0-0.7,0c0-0.1,0-0.2,0-0.2c0-0.1,0-0.1,0-0.2
				c0.2,0,0.4,0,0.5-0.1s0.2-0.1,0.3-0.3c0-0.1,0.1-0.3,0.1-0.5v-1h1.1L205.4,24.1L205.4,24.1z M205.4,22.7v0.8h-1.1v-1.1l1.1-0.9
				c0,0.2,0,0.4-0.1,0.6c0,0.2-0.1,0.3-0.1,0.5L205.4,22.7z M205.1,22.6c0.1-0.2,0.2-0.3,0.2-0.4s0.1-0.2,0.2-0.3
				c0.2-0.2,0.4-0.4,0.6-0.6s0.5-0.2,0.8-0.2s0.6,0.1,0.8,0.2c0,0.1,0,0.2-0.1,0.4s0,0.3,0,0.4s0,0.3,0,0.4c-0.1,0-0.2,0-0.3,0.1
				c-0.1,0-0.3,0-0.4,0c0-0.3-0.1-0.5-0.2-0.6c-0.1-0.1-0.2-0.1-0.4-0.1c-0.1,0-0.3,0.1-0.4,0.2c-0.2,0.1-0.3,0.3-0.4,0.5
				c-0.1,0.2-0.2,0.4-0.2,0.7L205.1,22.6z"/>
			<path class="st10" d="M210.9,25.6c-0.6,0-1-0.1-1.4-0.3c-0.4-0.2-0.7-0.5-0.8-0.8s-0.3-0.7-0.3-1.2c0-0.4,0.1-0.8,0.3-1.1
				c0.2-0.3,0.5-0.6,0.9-0.8c0.4-0.2,0.8-0.3,1.3-0.3s0.9,0.1,1.2,0.3c0.3,0.2,0.5,0.4,0.7,0.7c0.2,0.3,0.2,0.6,0.3,1
				c0,0.1-0.1,0.2-0.2,0.3c-0.1,0-0.3,0-0.6,0s-0.6,0-0.9,0c-0.3,0-0.7,0-1,0c-0.4,0-0.7,0-1,0v-0.5h2.5c0-0.4-0.1-0.8-0.3-1
				s-0.5-0.4-0.8-0.4c-0.2,0-0.4,0-0.6,0.1c-0.2,0.1-0.3,0.3-0.5,0.5s-0.2,0.6-0.2,1c0,0.3,0,0.6,0.1,0.9s0.3,0.5,0.5,0.7
				s0.6,0.3,1.1,0.3c0.3,0,0.5,0,0.8-0.1s0.5-0.2,0.7-0.4c0.1,0,0.1,0.1,0.2,0.1s0.1,0.1,0.1,0.2c-0.3,0.3-0.6,0.5-0.9,0.6
				C211.8,25.6,211.4,25.6,210.9,25.6z"/>
			<path class="st10" d="M216.6,25.6c-0.6,0-1-0.1-1.4-0.3c-0.4-0.2-0.7-0.5-0.8-0.8s-0.3-0.7-0.3-1.2c0-0.4,0.1-0.8,0.3-1.1
				c0.2-0.3,0.5-0.6,0.9-0.8c0.4-0.2,0.8-0.3,1.3-0.3s0.9,0.1,1.2,0.3c0.3,0.2,0.5,0.4,0.7,0.7c0.2,0.3,0.2,0.6,0.3,1
				c0,0.1-0.1,0.2-0.2,0.3c-0.1,0-0.3,0-0.6,0s-0.6,0-0.9,0c-0.3,0-0.7,0-1,0c-0.4,0-0.7,0-1,0v-0.5h2.5c0-0.4-0.1-0.8-0.3-1
				s-0.5-0.4-0.8-0.4c-0.2,0-0.4,0-0.6,0.1c-0.2,0.1-0.3,0.3-0.5,0.5s-0.2,0.6-0.2,1c0,0.3,0,0.6,0.1,0.9s0.3,0.5,0.5,0.7
				s0.6,0.3,1.1,0.3c0.3,0,0.5,0,0.8-0.1s0.5-0.2,0.7-0.4c0.1,0,0.1,0.1,0.2,0.1s0.1,0.1,0.1,0.2c-0.3,0.3-0.6,0.5-0.9,0.6
				C217.4,25.6,217,25.6,216.6,25.6z"/>
			<path class="st10" d="M224.7,25.6c-0.5,0-1-0.1-1.4-0.3c-0.4-0.2-0.7-0.5-0.9-0.8s-0.3-0.7-0.3-1.2c0-0.4,0.1-0.8,0.3-1.2
				c0.2-0.3,0.5-0.6,1-0.8s0.9-0.3,1.4-0.3c0.6,0,1,0.1,1.4,0.3c0.4,0.2,0.7,0.5,0.9,0.8s0.3,0.7,0.3,1.2c0,0.4-0.1,0.8-0.3,1.2
				c-0.2,0.3-0.5,0.6-0.9,0.8S225.3,25.6,224.7,25.6z M224.8,25.2c0.5,0,0.8-0.2,1.1-0.5c0.2-0.3,0.3-0.7,0.3-1.2
				c0-0.4-0.1-0.7-0.2-1c-0.1-0.3-0.3-0.5-0.6-0.7c-0.2-0.2-0.5-0.2-0.8-0.2c-0.5,0-0.8,0.2-1,0.5s-0.3,0.7-0.3,1.2
				c0,0.4,0.1,0.8,0.2,1.1c0.1,0.3,0.3,0.5,0.6,0.7C224.2,25.1,224.5,25.2,224.8,25.2z"/>
			<path class="st10" d="M228.3,25.6c0-0.1,0-0.1,0-0.2s0-0.1,0-0.2c0.3,0,0.5-0.1,0.6-0.2s0.2-0.3,0.2-0.7v-1.9
				c0-0.1,0-0.3-0.1-0.4c0-0.1-0.1-0.2-0.2-0.2c-0.1-0.1-0.3-0.1-0.6-0.1c0-0.1,0-0.1,0-0.2s0-0.1,0.1-0.2c0.1,0,0.3,0,0.5,0
				s0.4-0.1,0.6-0.1c0.2,0,0.4-0.1,0.5-0.2c0.1,0,0.1,0.1,0.2,0.1s0.1,0.1,0.1,0.3v2.9c0,0.3,0.1,0.5,0.2,0.7
				c0.1,0.1,0.3,0.2,0.5,0.2c0,0.1,0,0.1,0,0.2s0,0.1,0,0.2c-0.1,0-0.3,0-0.4,0c-0.2,0-0.3,0-0.5,0s-0.3,0-0.5,0s-0.3,0-0.5,0
				s-0.3,0-0.5,0C228.6,25.6,228.4,25.6,228.3,25.6z M229.6,19.9c-0.2,0-0.4-0.1-0.5-0.2s-0.2-0.2-0.2-0.4c0-0.2,0.1-0.3,0.2-0.4
				c0.1-0.1,0.3-0.2,0.5-0.2s0.4,0.1,0.5,0.2s0.2,0.3,0.2,0.4s-0.1,0.3-0.2,0.4S229.8,19.9,229.6,19.9z"/>
			<path class="st10" d="M231.9,25.6c0-0.1,0-0.1,0-0.2s0-0.1,0-0.2c0.3,0,0.5-0.1,0.7-0.2c0.1-0.1,0.2-0.3,0.2-0.7V20
				c0-0.1,0-0.3-0.1-0.4c0-0.1-0.1-0.2-0.2-0.2c-0.1-0.1-0.3-0.1-0.6-0.1c0-0.1,0-0.1,0-0.2s0-0.1,0.1-0.2c0.1,0,0.3,0,0.5,0
				s0.4-0.1,0.6-0.1c0.2,0,0.4-0.1,0.5-0.2c0.1,0,0.1,0.1,0.2,0.1s0.1,0.1,0.1,0.3v5.3c0,0.3,0.1,0.5,0.2,0.7
				c0.1,0.1,0.3,0.2,0.5,0.2c0,0.1,0,0.1,0,0.2s0,0.1,0,0.2c-0.1,0-0.3,0-0.4,0c-0.1,0-0.3,0-0.5,0s-0.3,0-0.5,0s-0.3,0-0.5,0
				s-0.3,0-0.5,0C232.1,25.6,232,25.6,231.9,25.6z"/>
		</g>
	</g>
</g>
</svg>
