<svg id="Layer_1" data-name="Layer 1" xmlns="http://www.w3.org/2000/svg" viewBox="0 0 48 48"><path d="M48,24A24,24,0,1,1,24,0,24,24,0,0,1,48,24Z" transform="translate(0 0)" style="fill:#e83e43"/><g id="Lozenge"><path d="M38.7,17.74a6.91,6.91,0,0,0-1.19-3.1,4.2,4.2,0,0,0-3-1.32C30.3,13,24,13,24,13h0s-6.3,0-10.5.32a4.21,4.21,0,0,0-3,1.32,6.91,6.91,0,0,0-1.19,3.1A49.57,49.57,0,0,0,9,22.81v2.37a49.25,49.25,0,0,0,.3,5.06,6.94,6.94,0,0,0,1.19,3.11,5,5,0,0,0,3.31,1.33C16.2,34.92,24,35,24,35s6.3,0,10.5-.33a4.2,4.2,0,0,0,3-1.32,6.94,6.94,0,0,0,1.19-3.11,49.25,49.25,0,0,0,.3-5.06V22.81A49.57,49.57,0,0,0,38.7,17.74ZM20.91,28.06V19.27L29,23.68Z" transform="translate(0 0)" style="fill:#fff"/></g><path d="M48,24A24,24,0,1,1,24,0,24,24,0,0,1,48,24Z" transform="translate(0 0)" style="fill:#e83e43"/><g id="Lozenge-2" data-name="Lozenge"><path d="M38.7,17.74a6.91,6.91,0,0,0-1.19-3.1,4.2,4.2,0,0,0-3-1.32C30.3,13,24,13,24,13h0s-6.3,0-10.5.32a4.21,4.21,0,0,0-3,1.32,6.91,6.91,0,0,0-1.19,3.1A49.57,49.57,0,0,0,9,22.81v2.37a49.25,49.25,0,0,0,.3,5.06,6.94,6.94,0,0,0,1.19,3.11,5,5,0,0,0,3.31,1.33C16.2,34.92,24,35,24,35s6.3,0,10.5-.33a4.2,4.2,0,0,0,3-1.32,6.94,6.94,0,0,0,1.19-3.11,49.25,49.25,0,0,0,.3-5.06V22.81A49.57,49.57,0,0,0,38.7,17.74ZM20.91,28.06V19.27L29,23.68Z" transform="translate(0 0)" style="fill:#fff"/></g><path d="M48,24A24,24,0,1,1,24,0,24,24,0,0,1,48,24Z" transform="translate(0 0)" style="fill:#e83e43"/><g id="Lozenge-3" data-name="Lozenge"><path d="M38.7,17.74a6.91,6.91,0,0,0-1.19-3.1,4.2,4.2,0,0,0-3-1.32C30.3,13,24,13,24,13h0s-6.3,0-10.5.32a4.21,4.21,0,0,0-3,1.32,6.91,6.91,0,0,0-1.19,3.1A49.57,49.57,0,0,0,9,22.81v2.37a49.25,49.25,0,0,0,.3,5.06,6.94,6.94,0,0,0,1.19,3.11,5,5,0,0,0,3.31,1.33C16.2,34.92,24,35,24,35s6.3,0,10.5-.33a4.2,4.2,0,0,0,3-1.32,6.94,6.94,0,0,0,1.19-3.11,49.25,49.25,0,0,0,.3-5.06V22.81A49.57,49.57,0,0,0,38.7,17.74ZM20.91,28.06V19.27L29,23.68Z" transform="translate(0 0)" style="fill:#fff"/></g></svg>